#!OML:ASF X:\für Bonn\!DataBase\2005_08_12_Daniel\c3d\Daniel.ASF
:FULLY-SPECIFIED
:DEGREES
18
root 3.10485 16.9129 0.28841 294.417 -88.1713 -308.668
lowerback 23.2413 -2.67101 1.30428
upperback 8.05002 -3.98522 -2.76668
thorax -4.3827 -2.18993 -2.65255
lowerneck -4.66709 1.71991 -3.10997
upperneck 16.837 2.36637 -0.0587257
head 5.81686 0.823577 0.633993
rclavicle 7.35503e-015 -7.55382e-015
rhumerus 387.494 22.3013 -96.3198
rradius 23.8361
rwrist -376.806
rhand -27.5235 17.888
rfingers 7.12502
rthumb -0.925723 -12.0897
lclavicle 7.35503e-015 -7.55382e-015
lhumerus 24.0714 -13.8466 96.5175
lradius 39.3568
lwrist 17.8185
lhand -24.1473 1.46005
lfingers 7.12502
lthumb 2.33506 31.427
rfemur 6.55818 5.4204 10.0246
rtibia 25.4034
rfoot -23.0204 -18.2271
rtoes -10.2413
lfemur -0.0992466 -10.1402 -15.9046
ltibia 34.8562
lfoot -24.249 5.39864
ltoes -0.390133
19
root 3.09795 16.9171 0.283866 293.015 -88.2291 -307.278
lowerback 22.9194 -2.66202 1.282
upperback 7.77632 -3.95364 -2.75817
thorax -4.51666 -2.16542 -2.64453
lowerneck -4.36643 1.75104 -2.92021
upperneck 17.5966 2.35182 -0.0991378
head 6.00644 0.797747 0.589473
rclavicle 1.04362e-014 -3.18055e-015
rhumerus 391.607 23.5608 -94.2242
rradius 25.3546
rwrist -375.996
rhand -27.6839 17.8067
rfingers 7.12502
rthumb -1.08067 -12.1704
lclavicle 1.04362e-014 -3.18055e-015
lhumerus 27.5122 -14.8411 95.0361
lradius 41.1146
lwrist 17.1502
lhand -24.3404 0.875095
lfingers 7.12502
lthumb 2.14863 30.844
rfemur 6.66047 5.5774 10.1228
rtibia 25.2732
rfoot -23.0739 -18.3023
rtoes -10.1722
lfemur 0.0295532 -10.2506 -15.9097
ltibia 34.7549
lfoot -24.3168 5.54607
ltoes -0.388906
20
root 3.08868 16.9204 0.280468 292.019 -88.282 -306.293
lowerback 22.5862 -2.6731 1.25816
upperback 7.50179 -3.94813 -2.73961
thorax -4.64532 -2.15385 -2.61831
lowerneck -4.03359 1.80127 -2.78984
upperneck 18.338 2.3585 -0.0974644
head 6.1841 0.781235 0.568511
rclavicle 3.49861e-014 -3.97569e-015
rhumerus 396.008 24.7401 -91.5434
rradius 26.6561
rwrist -375.382
rhand -27.9034 17.7009
rfingers 7.12502
rthumb -1.29259 -12.2749
lclavicle 3.49861e-014 -3.97569e-015
lhumerus 31.0905 -15.4635 93.2987
lradius 42.7625
lwrist 16.537
lhand -24.1487 0.223572
lfingers 7.12502
lthumb 2.33371 30.1906
rfemur 6.77322 5.66798 10.2059
rtibia 25.135
rfoot -23.0583 -18.351
rtoes -10.0619
lfemur 0.155129 -10.3806 -15.9192
ltibia 34.659
lfoot -24.4 5.68732
ltoes -0.333942
21
root 3.07511 16.9248 0.275517 290.463 -88.3306 -304.736
lowerback 22.2237 -2.66722 1.23715
upperback 7.22288 -3.92143 -2.73962
thorax -4.76286 -2.13178 -2.62061
lowerneck -3.64235 1.84902 -2.61485
upperneck 19.0802 2.34738 -0.0752258
head 6.3532 0.759779 0.544519
rclavicle 1.41137e-014 -6.75868e-015
rhumerus 400.528 25.4144 -88.6541
rradius 27.7361
rwrist -374.516
rhand -28.0796 17.6746
rfingers 7.12502
rthumb -1.46279 -12.3001
lclavicle 1.41137e-014 -6.75868e-015
lhumerus 34.7487 -16.0313 90.9963
lradius 44.4206
lwrist 16.008
lhand -23.6536 -0.259174
lfingers 7.12502
lthumb 2.81187 29.702
rfemur 6.89967 5.79498 10.2878
rtibia 24.9909
rfoot -23.123 -18.3901
rtoes -9.98926
lfemur 0.288824 -10.4875 -15.9319
ltibia 34.5732
lfoot -24.4984 5.81917
ltoes -0.333452
22
root 3.06063 16.9276 0.270783 289.577 -88.3968 -303.84
lowerback 21.8805 -2.66891 1.2311
upperback 6.91981 -3.89896 -2.71594
thorax -4.91447 -2.11162 -2.60341
lowerneck -3.12592 1.89824 -2.49598
upperneck 19.7395 2.32864 -0.0115234
head 6.47384 0.734957 0.540539
rclavicle 1.54058e-014 1.98785e-014
rhumerus 405.094 25.6152 -85.6198
rradius 28.5544
rwrist -373.136
rhand -28.2782 17.7472
rfingers 7.12502
rthumb -1.65463 -12.2261
lclavicle 1.54058e-014 1.98785e-014
lhumerus 38.4112 -16.3439 88.2595
lradius 45.9825
lwrist 15.3015
lhand -22.9678 -0.455938
lfingers 7.12502
lthumb 3.47415 29.4955
rfemur 7.01045 5.90807 10.4041
rtibia 24.8594
rfoot -23.1645 -18.471
rtoes -9.98102
lfemur 0.404178 -10.6256 -15.9199
ltibia 34.4968
lfoot -24.6067 5.95955
ltoes -0.238884
